<?xml version="1.0" encoding="utf-8"?>
<!-- Generator: Adobe Illustrator 27.5.0, SVG Export Plug-In . SVG Version: 6.00 Build 0)  -->
<svg version="1.1" xmlns="http://www.w3.org/2000/svg" xmlns:xlink="http://www.w3.org/1999/xlink" x="0px" y="0px"
	 viewBox="0 0 1200 1200" style="enable-background:new 0 0 1200 1200;" xml:space="preserve">
<g id="Graphic_Element">
	<g>
		<g>
			<path style="fill:#FFFFFF;" d="M950.807,516.089c-109.263-47.561-188.992-144.836-211.458-262.16
				c-22.466,117.324-102.195,214.598-211.458,262.16c-21.262,9.255-74.193,23.491-74.193,23.491s52.931,14.236,74.193,23.491
				c109.264,47.561,188.992,144.836,211.458,262.16c22.466-117.324,102.195-214.599,211.458-262.16
				c21.262-9.255,74.193-23.491,74.193-23.491S972.069,525.344,950.807,516.089z"/>
			<path style="fill:#FFFFFF;" d="M499.607,762.789c-64.779-28.197-112.048-85.869-125.367-155.427
				c-13.32,69.558-60.589,127.229-125.367,155.427c-12.605,5.487-43.987,13.927-43.987,13.927s31.381,8.44,43.987,13.927
				c64.779,28.198,112.047,85.869,125.367,155.427c13.319-69.558,60.588-127.229,125.367-155.427
				c12.606-5.487,43.987-13.927,43.987-13.927S512.212,768.276,499.607,762.789z"/>
		</g>
		<path style="fill:#FFFFFF;" d="M1013.417,776.716c0,16.505-13.38,29.886-29.886,29.886s-29.885-13.38-29.885-29.886
			s13.38-29.886,29.885-29.886S1013.417,760.211,1013.417,776.716z"/>
		<circle style="fill:#FFFFFF;" cx="434.669" cy="365.728" r="29.886"/>
		
			<ellipse transform="matrix(0.1759 -0.9844 0.9844 0.1759 -362.3184 646.3736)" style="fill:#FFFFFF;" cx="204.886" cy="539.58" rx="29.885" ry="29.886"/>
	</g>
</g>
</svg>
