<?xml version="1.0" encoding="utf-8"?>
<!-- Generator: Adobe Illustrator 27.5.0, SVG Export Plug-In . SVG Version: 6.00 Build 0)  -->
<svg version="1.1" xmlns="http://www.w3.org/2000/svg" xmlns:xlink="http://www.w3.org/1999/xlink" x="0px" y="0px"
	 viewBox="0 0 1200 1200" style="enable-background:new 0 0 1200 1200;" xml:space="preserve">
<g id="Background">
	<rect style="fill:#82C5FF;" width="1200" height="1200"/>
</g>
<g id="Graphic_Element">
	<g>
		<path style="fill:#FFFFFF;" d="M747.312,575.673C671.194,542.54,615.651,474.773,600,393.039
			c-15.651,81.734-71.194,149.501-147.313,182.634c-14.812,6.447-51.686,16.365-51.686,16.365s36.874,9.918,51.686,16.365
			c76.119,33.133,131.661,100.9,147.313,182.634c15.651-81.734,71.194-149.5,147.312-182.634
			c14.812-6.448,51.686-16.365,51.686-16.365S762.124,582.121,747.312,575.673z"/>
		<g>
			<path style="fill:#FFFFFF;" d="M600,225c-16.763,0-16.763,38.57-16.763,38.57v38.57c0,0,0,38.57,16.763,38.57
				c16.762,0,16.762-38.57,16.762-38.57v-38.57C616.762,263.57,616.762,225,600,225z"/>
			<path style="fill:#FFFFFF;" d="M600,859.29c-16.763,0-16.763,38.57-16.763,38.57v38.57c0,0,0,38.57,16.763,38.57
				c16.762,0,16.762-38.57,16.762-38.57v-38.57C616.762,897.86,616.762,859.29,600,859.29z"/>
		</g>
		<g>
			<path style="fill:#FFFFFF;" d="M975,600c0-16.763-38.57-16.763-38.57-16.763h-38.57c0,0-38.57,0-38.57,16.763
				c0,16.762,38.57,16.762,38.57,16.762h38.57C936.43,616.762,975,616.762,975,600z"/>
			<path style="fill:#FFFFFF;" d="M340.71,600c0-16.763-38.57-16.763-38.57-16.763h-38.57c0,0-38.57,0-38.57,16.763
				c0,16.762,38.57,16.762,38.57,16.762h38.57C302.14,616.762,340.71,616.762,340.71,600z"/>
		</g>
		<g>
			<path style="fill:#FFFFFF;" d="M292.135,283.882c-11.853,11.853,45.602,69.307,45.602,69.307l57.454,57.454
				c0,0,57.454,57.454,69.307,45.602c11.853-11.853-45.602-69.307-45.602-69.307l-57.454-57.454
				C361.442,329.484,303.988,272.029,292.135,283.882z"/>
			<path style="fill:#FFFFFF;" d="M907.865,283.882c11.853,11.853-45.602,69.307-45.602,69.307l-57.455,57.454
				c0,0-57.454,57.454-69.307,45.602c-11.853-11.853,45.602-69.307,45.602-69.307l57.454-57.454
				C838.557,329.484,896.012,272.029,907.865,283.882z"/>
		</g>
		<g>
			<path style="fill:#FFFFFF;" d="M907.865,900.195c11.853-11.853-45.602-69.307-45.602-69.307l-57.455-57.454
				c0,0-57.454-57.455-69.307-45.602c-11.853,11.853,45.602,69.307,45.602,69.307l57.454,57.454
				C838.557,854.593,896.012,912.048,907.865,900.195z"/>
			<path style="fill:#FFFFFF;" d="M292.135,900.195c-11.853-11.853,45.602-69.307,45.602-69.307l57.454-57.454
				c0,0,57.454-57.455,69.307-45.602c11.853,11.853-45.602,69.307-45.602,69.307l-57.454,57.454
				C361.442,854.593,303.988,912.048,292.135,900.195z"/>
		</g>
	</g>
</g>
</svg>
